<svg xmlns="http://www.w3.org/2000/svg" viewBox="0 0 200 60" width="100%" height="100%">
  <defs>
    <linearGradient id="gradLogo" x1="0%" y1="0%" x2="100%" y2="100%">
      <stop offset="0%" stop-color="#003B73"/>
      <stop offset="100%" stop-color="#0072CE"/>
    </linearGradient>
  </defs>
  <g transform="translate(10, 8)">
    <!-- Academic Shield / Garuda Inspiration -->
    <path d="M22 0 L40 8 L40 24 C40 35 32 44 22 46 C12 44 4 35 4 24 L4 8 Z" fill="url(#gradLogo)"/>
    <path d="M22 6 L34 12 L34 23 C34 31 29 38 22 40 C15 38 10 31 10 23 L10 12 Z" fill="#FFFFFF" opacity="0.15"/>
    <!-- Flame / Torch inside Shield -->
    <path d="M22 10 C25 15 28 18 25 24 C28 22 30 25 27 30 C27 30 24 33 22 35 C20 33 17 30 17 30 C14 25 16 22 19 24 C16 18 19 15 22 10 Z" fill="#FFC107"/>
  </g>
  <g transform="translate(62, 20)">
    <text x="0" y="14" font-family="'Plus Jakarta Sans', 'Inter', -apple-system, sans-serif" font-size="16" font-weight="800" fill="#003B73" letter-spacing="1">AMERTA</text>
    <text x="0" y="28" font-family="'Plus Jakarta Sans', 'Inter', -apple-system, sans-serif" font-size="9.5" font-weight="600" fill="#64748B" letter-spacing="0.5">UNIVERSITAS AIRLANGGA 2026</text>
  </g>
</svg>
